<svg width="84" height="44" viewBox="0 0 84 44" fill="none" xmlns="http://www.w3.org/2000/svg">
<path d="M27.2188 20.7812C29.4479 21.6146 31.3021 22.9167 32.7812 24.6875C34.2812 26.4583 35.0312 28.6771 35.0312 31.3438C35.0312 34.9062 33.6458 37.7396 30.875 39.8438C28.1042 41.9479 24.4167 43 19.8125 43H3.375C2.41667 43 1.66667 42.7396 1.125 42.2188C0.604167 41.6979 0.34375 40.9583 0.34375 40V4.40625C0.34375 3.44792 0.604167 2.70833 1.125 2.1875C1.66667 1.66667 2.41667 1.40625 3.375 1.40625H18.5312C22.7604 1.40625 26.1354 2.40625 28.6562 4.40625C31.1979 6.38542 32.4688 9.03125 32.4688 12.3438C32.4688 14.2188 32 15.8854 31.0625 17.3438C30.1458 18.7812 28.8646 19.9271 27.2188 20.7812ZM16.8125 9.53125H11.75L11.6875 18.2812H16.8125C18.3542 18.2812 19.5625 17.8958 20.4375 17.125C21.3333 16.3333 21.7812 15.2708 21.7812 13.9375C21.7812 12.5625 21.3333 11.4896 20.4375 10.7188C19.5625 9.92708 18.3542 9.53125 16.8125 9.53125ZM18.0312 34.875C19.8854 34.875 21.3333 34.4479 22.375 33.5938C23.4375 32.7188 23.9688 31.5417 23.9688 30.0625C23.9688 28.625 23.4375 27.4688 22.375 26.5938C21.3333 25.7188 19.9479 25.2812 18.2188 25.2812H11.6875L11.625 34.875H18.0312Z" fill="#333333"/>
<path d="M61.25 43.7812C57.125 43.7812 53.375 42.8542 50 41C46.6458 39.125 44 36.5417 42.0625 33.25C40.1458 29.9375 39.1875 26.25 39.1875 22.1875C39.1875 19.1458 39.7604 16.2917 40.9062 13.625C42.0521 10.9375 43.6042 8.64583 45.5625 6.75C47.5208 4.85417 49.8542 3.36458 52.5625 2.28125C55.2917 1.17708 58.1875 0.625 61.25 0.625C67.4583 0.625 72.6875 2.67708 76.9375 6.78125C77.6458 7.44792 77.9896 8.16667 77.9688 8.9375C77.9688 9.70833 77.6042 10.4167 76.875 11.0625L73.8125 13.875C72.5 15.0208 71.0833 15 69.5625 13.8125C67.125 11.7708 64.4792 10.75 61.625 10.75C58.5417 10.75 55.9375 11.8438 53.8125 14.0312C51.6875 16.1979 50.625 18.9375 50.625 22.25C50.625 25.5417 51.6875 28.2708 53.8125 30.4375C55.9583 32.5833 58.6562 33.6562 61.9062 33.6562C64.6771 33.6562 67 32.8438 68.875 31.2188C70.3542 29.9896 71.3125 28.5 71.75 26.75H64.6562C63.6979 26.75 62.9583 26.5 62.4375 26C61.9375 25.5 61.6875 24.7708 61.6875 23.8125V21.5625C61.6875 20.6458 61.9375 19.9375 62.4375 19.4375C62.9583 18.9375 63.6979 18.6875 64.6562 18.6875H80.3125C81.25 18.6875 81.9792 18.9479 82.5 19.4688C83.0208 19.9688 83.2812 20.6875 83.2812 21.625V22.7188C83.2812 25.6146 82.7292 28.3438 81.625 30.9062C80.5208 33.4688 78.9583 35.7083 76.9375 37.625C74.9583 39.5833 72.6146 41.1042 69.9062 42.1875C67.2188 43.25 64.3333 43.7812 61.25 43.7812Z" fill="#58CDCD"/>
</svg>
