<svg width="200" height="40" viewBox="0 0 200 40" fill="none" xmlns="http://www.w3.org/2000/svg">
<path d="M12.1415 16.3148H4.87765C4.47645 16.3148 4.10259 16.5305 3.90207 16.8781L0.270133 23.1685C0.0694607 23.5164 0.0694607 23.9478 0.270133 24.2951L3.90207 30.5863C4.10259 30.9335 4.47645 31.149 4.87765 31.149H12.1415C12.5427 31.149 12.9166 30.9333 13.1173 30.5863L16.7492 24.2951C16.9497 23.9476 16.9497 23.5164 16.7492 23.1685L13.1173 16.8781C12.9166 16.5305 12.5426 16.3148 12.1415 16.3148Z" fill="#EDB230"/>
<path d="M26.473 7.86646H19.2091C18.808 7.86646 18.434 8.08218 18.2334 8.42975L14.6014 14.7201C14.401 15.0677 14.401 15.4989 14.6014 15.8469L18.2334 22.1373C18.434 22.4849 18.808 22.7006 19.2091 22.7006H26.473C26.8741 22.7006 27.2478 22.4849 27.4485 22.1373L31.0803 15.8469C31.2808 15.4991 31.2808 15.0677 31.0803 14.7201L27.4485 8.42975C27.2478 8.08218 26.8741 7.86646 26.473 7.86646Z" fill="#EDB230"/>
<path d="M33.8531 31.5193H41.1169C41.518 31.5193 41.892 31.3039 42.0926 30.956L45.7246 24.6657C45.925 24.3181 45.925 23.8864 45.7246 23.5391L42.0926 17.2478C41.892 16.901 41.518 16.6848 41.1169 16.6848H33.8531C33.4519 16.6848 33.0782 16.9011 32.8775 17.2478L29.2459 23.5391C29.0452 23.8865 29.0452 24.3181 29.2459 24.6657L32.8775 30.956C33.0782 31.3039 33.4521 31.5193 33.8531 31.5193Z" fill="#EDB230"/>
<path d="M31.0517 30.9736L27.4196 24.6832C27.2191 24.3356 26.8451 24.1199 26.444 24.1199H19.1801C18.779 24.1199 18.4053 24.3356 18.2046 24.6832L14.5729 30.9736C14.3723 31.3213 14.3723 31.7528 14.5729 32.1001L18.2046 38.3908C18.4053 38.7382 18.779 38.9541 19.1801 38.9541H26.444C26.8451 38.9541 27.2191 38.738 27.4196 38.3908L31.0517 32.1001C31.2521 31.7528 31.2521 31.3213 31.0517 30.9736Z" fill="#EDB230"/>
<path d="M16.6293 6.85365L12.9972 0.563266C12.7967 0.215693 12.4227 0 12.0216 0H4.75772C4.35652 0 3.98281 0.215693 3.78214 0.563266L0.150505 6.85365C-0.0501682 7.2014 -0.0501682 7.63291 0.150505 7.98018L3.78214 14.2709C3.98281 14.6183 4.35652 14.8342 4.75772 14.8342H12.0216C12.4227 14.8342 12.7967 14.6182 12.9972 14.2709L16.6293 7.98018C16.8296 7.63291 16.8296 7.2014 16.6293 6.85365Z" fill="#EDB230"/>
<path d="M60.1923 31.1889L56.5601 24.8985C56.3596 24.5509 55.9856 24.3352 55.5846 24.3352H48.3207C47.9195 24.3352 47.5458 24.5509 47.3451 24.8985L43.7135 31.1889C43.5128 31.5366 43.5128 31.9682 43.7135 32.3154L47.3451 38.6061C47.5458 38.9535 47.9195 39.1694 48.3207 39.1694H55.5846C55.9856 39.1694 56.3596 38.9534 56.5601 38.6061L60.1923 32.3154C60.3926 31.9682 60.3926 31.5366 60.1923 31.1889Z" fill="#EDB230"/>
<path d="M45.7246 6.89196L42.0926 0.60123C41.892 0.253807 41.518 0.0379639 41.117 0.0379639H33.8531C33.4519 0.0379639 33.0782 0.253958 32.8775 0.60123L29.2459 6.89196C29.0452 7.23935 29.0452 7.67134 29.2459 8.01843L32.8775 14.3094C33.0782 14.6566 33.4519 14.8727 33.8531 14.8727H41.117C41.518 14.8727 41.892 14.6566 42.0926 14.3094L45.7246 8.01843C45.925 7.67134 45.925 7.23923 45.7246 6.89196Z" fill="#EDB230"/>
<path d="M56.4242 8.79938C56.2235 8.45193 55.8498 8.23608 55.4485 8.23608H48.1847C47.7835 8.23608 47.4097 8.45211 47.209 8.79938L43.5771 15.0907C43.3767 15.4375 43.3767 15.8696 43.5771 16.2166L47.209 22.5076C47.4097 22.8552 47.7835 23.0712 48.1847 23.0712H55.4485C55.8498 23.0712 56.2235 22.8552 56.4242 22.5076L60.0561 16.2166C60.2568 15.8695 60.2568 15.4374 60.0561 15.0907L56.4242 8.79938Z" fill="#EDB230"/>
<path d="M83.4659 19.1635H91.6689V29.8837C90.5845 30.2421 89.4579 30.5296 88.2885 30.7465C87.1196 30.9539 85.7951 31.0576 84.3149 31.0576C82.259 31.0576 80.5151 30.6522 79.082 29.8413C77.6489 29.0305 76.5597 27.8331 75.8151 26.2491C75.0698 24.6651 74.6975 22.7181 74.6975 20.4081C74.6975 18.2396 75.1127 16.3633 75.9424 14.7793C76.7811 13.1953 78.0025 11.9695 79.6052 11.1021C81.2175 10.2347 83.1835 9.80102 85.5025 9.80102C86.5965 9.80102 87.676 9.91886 88.741 10.1546C89.8067 10.3903 90.7734 10.6967 91.6405 11.0739L90.1838 14.5813C89.552 14.2607 88.8309 13.992 88.0199 13.7751C87.2089 13.5583 86.3605 13.4499 85.4741 13.4499C84.2015 13.4499 83.0936 13.7421 82.151 14.3267C81.2175 14.9112 80.4916 15.7315 79.9727 16.7875C79.464 17.8341 79.2093 19.0693 79.2093 20.4929C79.2093 21.8412 79.3928 23.0387 79.7608 24.0852C80.1283 25.1224 80.7082 25.9379 81.4999 26.532C82.2922 27.1165 83.3247 27.4088 84.5973 27.4088C85.22 27.4088 85.7432 27.3805 86.1674 27.3239C86.6013 27.2579 87.0068 27.1919 87.3833 27.1259V22.8124H83.4659V19.1635ZM103.475 14.9631V30.7748H99.1616V14.9631H103.475ZM101.325 8.76855C101.967 8.76855 102.518 8.91947 102.98 9.22112C103.442 9.51342 103.673 10.065 103.673 10.8758C103.673 11.6773 103.442 12.2335 102.98 12.5447C102.518 12.8464 101.967 12.9973 101.325 12.9973C100.675 12.9973 100.119 12.8464 99.657 12.5447C99.2044 12.2335 98.9781 11.6773 98.9781 10.8758C98.9781 10.065 99.2044 9.51342 99.657 9.22112C100.119 8.91947 100.675 8.76855 101.325 8.76855ZM115.536 37.733C113.33 37.733 111.642 37.3464 110.473 36.5733C109.314 35.8096 108.734 34.7347 108.734 33.3487C108.734 32.3965 109.031 31.5998 109.624 30.9586C110.219 30.3175 111.091 29.8602 112.241 29.5867C111.798 29.3982 111.411 29.0917 111.081 28.6675C110.751 28.2338 110.586 27.7765 110.586 27.2957C110.586 26.6922 110.761 26.1925 111.109 25.7965C111.458 25.3911 111.963 24.9951 112.623 24.6085C111.793 24.2502 111.133 23.6751 110.643 22.8831C110.162 22.0911 109.921 21.1577 109.921 20.0828C109.921 18.9325 110.172 17.9567 110.671 17.1553C111.18 16.3444 111.916 15.7268 112.877 15.3026C113.848 14.8782 115.027 14.6661 116.413 14.6661C116.706 14.6661 117.045 14.685 117.432 14.7227C117.818 14.7604 118.171 14.8028 118.492 14.85C118.822 14.8971 119.044 14.9348 119.157 14.9631H124.673V17.1553L122.197 17.7917C122.424 18.1405 122.593 18.513 122.707 18.9089C122.819 19.305 122.876 19.7245 122.876 20.1677C122.876 21.8648 122.282 23.1895 121.094 24.1418C119.916 25.0846 118.275 25.5561 116.173 25.5561C115.673 25.5278 115.201 25.4901 114.758 25.443C114.542 25.6126 114.376 25.7918 114.264 25.9804C114.15 26.1689 114.094 26.3669 114.094 26.5744C114.094 26.7818 114.178 26.9562 114.348 27.0976C114.527 27.2296 114.792 27.3334 115.14 27.4088C115.499 27.4747 115.942 27.5078 116.47 27.5078H119.157C120.892 27.5078 122.212 27.8802 123.117 28.6251C124.031 29.3699 124.489 30.4636 124.489 31.9062C124.489 33.7542 123.716 35.1873 122.169 36.2056C120.632 37.2239 118.421 37.733 115.536 37.733ZM115.72 34.9186C116.748 34.9186 117.629 34.8196 118.365 34.6216C119.11 34.433 119.68 34.1596 120.076 33.8013C120.472 33.4525 120.67 33.0329 120.67 32.5426C120.67 32.1466 120.552 31.8308 120.316 31.5951C120.09 31.3688 119.741 31.2085 119.27 31.1142C118.808 31.0199 118.214 30.9727 117.488 30.9727H115.253C114.725 30.9727 114.249 31.0576 113.825 31.2273C113.41 31.397 113.08 31.6328 112.835 31.9345C112.59 32.2456 112.467 32.6039 112.467 33.0093C112.467 33.6033 112.75 34.07 113.316 34.4094C113.891 34.7489 114.693 34.9186 115.72 34.9186ZM116.413 22.9255C117.224 22.9255 117.818 22.6756 118.195 22.1759C118.572 21.6762 118.761 20.9974 118.761 20.1394C118.761 19.1871 118.563 18.4753 118.167 18.0038C117.78 17.523 117.196 17.2825 116.413 17.2825C115.621 17.2825 115.027 17.523 114.631 18.0038C114.235 18.4753 114.037 19.1871 114.037 20.1394C114.037 20.9974 114.23 21.6762 114.617 22.1759C115.013 22.6756 115.612 22.9255 116.413 22.9255ZM147.468 30.7748H143.098V21.8506H134.909V30.7748H130.525V10.098H134.909V18.2018H143.098V10.098H147.468V30.7748ZM159.571 14.9631V30.7748H155.258V14.9631H159.571ZM157.422 8.76855C158.063 8.76855 158.614 8.91947 159.076 9.22112C159.538 9.51342 159.769 10.065 159.769 10.8758C159.769 11.6773 159.538 12.2335 159.076 12.5447C158.614 12.8464 158.063 12.9973 157.422 12.9973C156.771 12.9973 156.215 12.8464 155.753 12.5447C155.3 12.2335 155.074 11.6773 155.074 10.8758C155.074 10.065 155.3 9.51342 155.753 9.22112C156.215 8.91947 156.771 8.76855 157.422 8.76855ZM170.769 30.7748L164.745 14.9631H169.256L172.311 23.9721C172.481 24.5001 172.613 25.0563 172.707 25.6409C172.811 26.2255 172.881 26.7488 172.919 27.2108H173.032C173.061 26.7111 173.126 26.1783 173.23 25.6126C173.344 25.0469 173.49 24.5001 173.669 23.9721L176.71 14.9631H181.221L175.196 30.7748H170.769ZM192.914 14.6661C194.375 14.6661 195.634 14.949 196.69 15.5147C197.746 16.071 198.562 16.8819 199.137 17.9473C199.712 19.0127 200 20.3138 200 21.8506V23.9438H189.803C189.85 25.1601 190.213 26.117 190.892 26.8148C191.58 27.503 192.533 27.8472 193.749 27.8472C194.757 27.8472 195.681 27.7435 196.521 27.5361C197.36 27.3287 198.222 27.0175 199.109 26.6026V29.9403C198.326 30.3269 197.506 30.6098 196.648 30.7889C195.8 30.968 194.767 31.0576 193.551 31.0576C191.967 31.0576 190.562 30.7653 189.336 30.1807C188.12 29.5962 187.163 28.7052 186.465 27.5078C185.777 26.3104 185.433 24.8018 185.433 22.9821C185.433 21.1341 185.744 19.5973 186.366 18.3715C186.998 17.1364 187.875 16.2124 188.997 15.5996C190.119 14.9773 191.425 14.6661 192.914 14.6661ZM192.942 17.7351C192.104 17.7351 191.405 18.0038 190.85 18.5413C190.302 19.0787 189.987 19.9225 189.902 21.0728H195.955C195.946 20.4317 195.828 19.8613 195.602 19.3615C195.384 18.8618 195.054 18.4658 194.611 18.1735C194.178 17.8812 193.621 17.7351 192.942 17.7351Z" fill="#453F3C"/>
</svg>
