<svg width="170" height="30" viewBox="0 0 170 30" fill="none" xmlns="http://www.w3.org/2000/svg">
<path d="M15.8379 26.5566C15.9199 26.7207 15.9609 26.8789 15.9609 27.0312C15.9609 27.1836 15.9434 27.3066 15.9082 27.4004C15.873 27.4941 15.7969 27.6055 15.6797 27.7344C15.5625 27.8516 15.4746 27.9336 15.416 27.9805C15.3691 28.0273 15.2695 28.1035 15.1172 28.209C13.9336 29.0527 12.4102 29.4746 10.5469 29.4746C9.62109 29.4746 8.74219 29.334 7.91016 29.0527C7.08984 28.7832 6.3457 28.3789 5.67773 27.8398C5.00977 27.3008 4.47656 26.5742 4.07812 25.6602C3.69141 24.7344 3.49805 23.6738 3.49805 22.4785V15.3594H1.91602C1.38867 15.3594 0.978516 15.2129 0.685547 14.9199C0.392578 14.627 0.246094 14.2227 0.246094 13.707V12.4766C0.246094 11.9375 0.386719 11.5273 0.667969 11.2461C0.960938 10.9648 1.37695 10.8242 1.91602 10.8242H3.49805V6.64062C3.49805 6.14844 3.63281 5.7793 3.90234 5.5332C4.18359 5.28711 4.59961 5.10547 5.15039 4.98828L8.0332 4.47852C8.54883 4.37305 8.95312 4.47852 9.24609 4.79492C9.53906 5.09961 9.68555 5.5332 9.68555 6.0957V10.8242H13.2539C13.7812 10.8242 14.1855 10.9707 14.4668 11.2637C14.7598 11.5449 14.9062 11.9492 14.9062 12.4766V13.707C14.9062 14.2227 14.7598 14.627 14.4668 14.9199C14.1738 15.2129 13.7695 15.3594 13.2539 15.3594H9.68555V21.8281C9.68555 22.6484 9.86719 23.2461 10.2305 23.6211C10.6055 23.9961 11.0977 24.1836 11.707 24.1836C12.1289 24.1836 12.6211 24.0137 13.1836 23.6738C13.8984 23.2051 14.4492 23.3867 14.8359 24.2188L15.8379 26.5566ZM30.7969 10.9297C31.1836 11.0586 31.459 11.2344 31.623 11.457C31.7988 11.668 31.8223 12.0078 31.6934 12.4766L31.0078 15.1836C30.7383 16.1211 30.2344 16.4434 29.4961 16.1504C28.6875 15.9043 28.0605 15.7812 27.6152 15.7812C26.5723 15.7812 25.7637 16.0977 25.1895 16.7305C24.627 17.3633 24.3457 18.2246 24.3457 19.3145V27.3477C24.3457 27.8633 24.2051 28.2676 23.9238 28.5605C23.6426 28.8535 23.2441 29 22.7285 29H19.7402C19.2246 29 18.8262 28.8535 18.5449 28.5605C18.2637 28.2676 18.123 27.8633 18.123 27.3477V12.4766C18.123 11.9609 18.2637 11.5566 18.5449 11.2637C18.8262 10.9707 19.2246 10.8242 19.7402 10.8242H21.6387C22.1543 10.8242 22.5527 10.9707 22.834 11.2637C23.127 11.5566 23.2734 11.9609 23.2734 12.4766V13.3379C24.6211 11.4629 26.2617 10.5254 28.1953 10.5254C29.0977 10.5254 29.9648 10.6602 30.7969 10.9297ZM36.9668 8.04688C35.9355 8.04688 35.0508 7.68359 34.3125 6.95703C33.5859 6.21875 33.2227 5.33398 33.2227 4.30273C33.2227 3.25977 33.5859 2.375 34.3125 1.64844C35.0508 0.921875 35.9355 0.558594 36.9668 0.558594C38.0098 0.558594 38.8945 0.921875 39.6211 1.64844C40.3477 2.375 40.7109 3.25977 40.7109 4.30273C40.7109 5.33398 40.3477 6.21875 39.6211 6.95703C38.8945 7.68359 38.0098 8.04688 36.9668 8.04688ZM35.4902 29C34.9629 29 34.5527 28.8594 34.2598 28.5781C33.9785 28.2852 33.8379 27.875 33.8379 27.3477V12.4766C33.8379 11.9492 33.9785 11.5449 34.2598 11.2637C34.5527 10.9707 34.9629 10.8242 35.4902 10.8242H38.4434C38.959 10.8242 39.3633 10.9707 39.6562 11.2637C39.9492 11.5566 40.0957 11.9609 40.0957 12.4766V27.3477C40.0957 27.8633 39.9492 28.2676 39.6562 28.5605C39.3633 28.8535 38.959 29 38.4434 29H35.4902ZM51.293 29.5098C49.793 29.5098 48.3516 29.2578 46.9688 28.7539C45.5859 28.2383 44.5078 27.623 43.7344 26.9082C43.3008 26.5098 43.0664 26.1348 43.0312 25.7832C42.9961 25.4316 43.1836 25.0039 43.5938 24.5L44.4551 23.4629C44.7129 23.1465 44.9824 22.9473 45.2637 22.8652C45.5566 22.7715 45.8203 22.7656 46.0547 22.8477C46.3008 22.9297 46.5703 23.0703 46.8633 23.2695C48.3164 24.3242 49.8047 24.8516 51.3281 24.8516C51.8672 24.8516 52.2832 24.7578 52.5762 24.5703C52.8691 24.3828 53.0156 24.1191 53.0156 23.7793C53.0156 23.6152 52.9688 23.4629 52.875 23.3223C52.7812 23.1699 52.6758 23.0469 52.5586 22.9531C52.4414 22.8477 52.2656 22.7422 52.0312 22.6367C51.7969 22.5195 51.5977 22.4316 51.4336 22.373C51.2812 22.3145 51.0527 22.2324 50.748 22.127C50.1621 21.9512 49.6934 21.8047 49.3418 21.6875C48.9902 21.5703 48.5449 21.4062 48.0059 21.1953C47.4785 20.9844 47.0449 20.7793 46.7051 20.5801C46.377 20.3809 46.0195 20.1289 45.6328 19.8242C45.2461 19.5195 44.9414 19.1973 44.7188 18.8574C44.4961 18.5176 44.3086 18.1191 44.1562 17.6621C44.0156 17.2051 43.9453 16.7129 43.9453 16.1855C43.9453 14.4395 44.6133 13.0566 45.9492 12.0371C47.2852 11.0059 49.0781 10.4902 51.3281 10.4902C52.5938 10.4902 53.8477 10.6836 55.0898 11.0703C56.3438 11.457 57.2988 11.9258 57.9551 12.4766C58.3887 12.8516 58.6172 13.2148 58.6406 13.5664C58.6641 13.918 58.4707 14.3691 58.0605 14.9199L57.3047 15.8516C56.707 16.625 55.9395 16.7246 55.002 16.1504C53.8887 15.3535 52.6875 14.9551 51.3984 14.9551C50.9062 14.9551 50.5195 15.0488 50.2383 15.2363C49.957 15.4121 49.8164 15.6465 49.8164 15.9395C49.8164 16.1152 49.8691 16.2734 49.9746 16.4141C50.0918 16.543 50.2852 16.6719 50.5547 16.8008C50.8359 16.9297 51.0996 17.041 51.3457 17.1348C51.6035 17.2168 51.9785 17.3457 52.4707 17.5215C52.9746 17.6855 53.3965 17.8262 53.7363 17.9434C54.5449 18.2598 55.2363 18.582 55.8105 18.9102C56.3848 19.2383 56.918 19.6309 57.4102 20.0879C57.9023 20.5332 58.2715 21.0605 58.5176 21.6699C58.7637 22.2676 58.8867 22.9473 58.8867 23.709C58.8867 25.502 58.1895 26.9199 56.7949 27.9629C55.4121 28.9941 53.5781 29.5098 51.293 29.5098ZM75.709 26.5566C75.791 26.7207 75.832 26.8789 75.832 27.0312C75.832 27.1836 75.8145 27.3066 75.7793 27.4004C75.7441 27.4941 75.668 27.6055 75.5508 27.7344C75.4336 27.8516 75.3457 27.9336 75.2871 27.9805C75.2402 28.0273 75.1406 28.1035 74.9883 28.209C73.8047 29.0527 72.2812 29.4746 70.418 29.4746C69.4922 29.4746 68.6133 29.334 67.7812 29.0527C66.9609 28.7832 66.2168 28.3789 65.5488 27.8398C64.8809 27.3008 64.3477 26.5742 63.9492 25.6602C63.5625 24.7344 63.3691 23.6738 63.3691 22.4785V15.3594H61.7871C61.2598 15.3594 60.8496 15.2129 60.5566 14.9199C60.2637 14.627 60.1172 14.2227 60.1172 13.707V12.4766C60.1172 11.9375 60.2578 11.5273 60.5391 11.2461C60.832 10.9648 61.248 10.8242 61.7871 10.8242H63.3691V6.64062C63.3691 6.14844 63.5039 5.7793 63.7734 5.5332C64.0547 5.28711 64.4707 5.10547 65.0215 4.98828L67.9043 4.47852C68.4199 4.37305 68.8242 4.47852 69.1172 4.79492C69.4102 5.09961 69.5566 5.5332 69.5566 6.0957V10.8242H73.125C73.6523 10.8242 74.0566 10.9707 74.3379 11.2637C74.6309 11.5449 74.7773 11.9492 74.7773 12.4766V13.707C74.7773 14.2227 74.6309 14.627 74.3379 14.9199C74.0449 15.2129 73.6406 15.3594 73.125 15.3594H69.5566V21.8281C69.5566 22.6484 69.7383 23.2461 70.1016 23.6211C70.4766 23.9961 70.9688 24.1836 71.5781 24.1836C72 24.1836 72.4922 24.0137 73.0547 23.6738C73.7695 23.2051 74.3203 23.3867 74.707 24.2188L75.709 26.5566ZM85.834 10.5254C86.9824 10.5254 88.0488 10.6602 89.0332 10.9297C90.0176 11.1992 90.9258 11.6211 91.7578 12.1953C92.5898 12.7695 93.2461 13.5723 93.7266 14.6035C94.207 15.6348 94.4473 16.8477 94.4473 18.2422V27.3477C94.4473 28.4492 93.8965 29 92.7949 29H91.3184C90.8027 29 90.3984 28.8535 90.1055 28.5605C89.8242 28.2676 89.6836 27.8633 89.6836 27.3477V27.207C88.0195 28.7188 86.1035 29.4746 83.9355 29.4746C81.791 29.4746 80.0684 28.9531 78.7676 27.9102C77.4785 26.8555 76.834 25.4668 76.834 23.7441C76.834 21.8926 77.543 20.4043 78.9609 19.2793C80.3789 18.1543 82.2539 17.5918 84.5859 17.5918C85.8281 17.5918 87.1934 17.8438 88.6816 18.3477V17.6973C88.6816 16.8535 88.3945 16.1914 87.8203 15.7109C87.2578 15.2305 86.4551 14.9902 85.4121 14.9902C83.9004 14.9902 82.5527 15.3418 81.3691 16.0449C80.4668 16.5488 79.7754 16.332 79.2949 15.3945L78.8906 14.5684C78.6094 13.9707 78.5098 13.5078 78.5918 13.1797C78.6738 12.8516 78.9199 12.5586 79.3301 12.3008C80.1973 11.75 81.2227 11.3164 82.4062 11C83.5898 10.6836 84.7324 10.5254 85.834 10.5254ZM85.5176 25.6074C86.4434 25.6074 87.2227 25.373 87.8555 24.9043C88.5 24.4355 88.8223 23.9434 88.8223 23.4277V21.9512C87.6855 21.4238 86.6074 21.1602 85.5879 21.1602C84.709 21.1602 84 21.3711 83.4609 21.793C82.9336 22.2148 82.6699 22.7598 82.6699 23.4277C82.6699 24.0957 82.9277 24.6289 83.4434 25.0273C83.959 25.4141 84.6504 25.6074 85.5176 25.6074ZM109.283 10.5254C111.498 10.5254 113.297 11.2461 114.68 12.6875C116.074 14.1172 116.771 16.0156 116.771 18.3828V27.3477C116.771 27.8633 116.625 28.2676 116.332 28.5605C116.039 28.8535 115.635 29 115.119 29H112.166C111.65 29 111.246 28.8535 110.953 28.5605C110.66 28.2676 110.514 27.8633 110.514 27.3477V18.8398C110.514 17.9375 110.256 17.2109 109.74 16.6602C109.225 16.0977 108.533 15.8164 107.666 15.8164C106.775 15.8164 106.066 16.0977 105.539 16.6602C105.012 17.2109 104.748 17.9375 104.748 18.8398V27.3477C104.748 27.8633 104.607 28.2676 104.326 28.5605C104.045 28.8535 103.646 29 103.131 29H100.143C99.627 29 99.2285 28.8535 98.9473 28.5605C98.666 28.2676 98.5254 27.8633 98.5254 27.3477V12.4766C98.5254 11.9609 98.666 11.5566 98.9473 11.2637C99.2285 10.9707 99.627 10.8242 100.143 10.8242H102.041C102.557 10.8242 102.955 10.9707 103.236 11.2637C103.529 11.5566 103.676 11.9609 103.676 12.4766V13.4082C105.035 11.4863 106.904 10.5254 109.283 10.5254ZM132.311 29C131.783 29 131.373 28.8594 131.08 28.5781C130.799 28.2852 130.658 27.875 130.658 27.3477V5.5332C130.658 5.0293 130.793 4.64844 131.062 4.39062C131.344 4.13281 131.76 3.95703 132.311 3.86328L135.229 3.30078C135.744 3.19531 136.154 3.30664 136.459 3.63477C136.764 3.95117 136.916 4.39062 136.916 4.95312V27.3477C136.916 27.8633 136.77 28.2676 136.477 28.5605C136.184 28.8535 135.779 29 135.264 29H132.311ZM150.135 29.4746C147.229 29.4746 144.826 28.5781 142.928 26.7852C141.029 24.9805 140.08 22.7188 140.08 20C140.08 17.2812 141.029 15.0254 142.928 13.2324C144.826 11.4277 147.229 10.5254 150.135 10.5254C152.057 10.5254 153.779 10.9355 155.303 11.7559C156.838 12.5762 158.033 13.707 158.889 15.1484C159.744 16.5898 160.172 18.207 160.172 20C160.172 21.793 159.744 23.4102 158.889 24.8516C158.033 26.293 156.838 27.4238 155.303 28.2441C153.779 29.0645 152.057 29.4746 150.135 29.4746ZM147.322 22.9707C148.072 23.7559 149.01 24.1484 150.135 24.1484C151.26 24.1484 152.186 23.7559 152.912 22.9707C153.65 22.1855 154.02 21.1953 154.02 20C154.02 18.8047 153.65 17.8145 152.912 17.0293C152.186 16.2441 151.26 15.8516 150.135 15.8516C149.01 15.8516 148.072 16.2441 147.322 17.0293C146.584 17.8145 146.215 18.8047 146.215 20C146.215 21.1953 146.584 22.1855 147.322 22.9707ZM165.006 29C164.479 29 164.068 28.8594 163.775 28.5781C163.494 28.2852 163.354 27.875 163.354 27.3477V5.5332C163.354 5.0293 163.488 4.64844 163.758 4.39062C164.039 4.13281 164.455 3.95703 165.006 3.86328L167.924 3.30078C168.439 3.19531 168.85 3.30664 169.154 3.63477C169.459 3.95117 169.611 4.39062 169.611 4.95312V27.3477C169.611 27.8633 169.465 28.2676 169.172 28.5605C168.879 28.8535 168.475 29 167.959 29H165.006Z" fill="#222831"/>
<path d="M123.627 29.4395C122.584 29.4395 121.699 29.0762 120.973 28.3496C120.246 27.6113 119.883 26.7266 119.883 25.6953C119.883 24.6641 120.246 23.7852 120.973 23.0586C121.699 22.3203 122.584 21.9512 123.627 21.9512C124.658 21.9512 125.537 22.3203 126.264 23.0586C127.002 23.7852 127.371 24.6641 127.371 25.6953C127.371 26.7266 127.002 27.6113 126.264 28.3496C125.537 29.0762 124.658 29.4395 123.627 29.4395Z" fill="#00ADB5"/>
</svg>
